<?xml version="1.0" ?>
<!DOCTYPE svg  PUBLIC '-//W3C//DTD SVG 1.1//EN'  'http://www.w3.org/Graphics/SVG/1.1/DTD/svg11.dtd'>
<!-- Uploaded to: SVG Repo, www.svgrepo.com, Generator: SVG Repo Mixer Tools -->
<svg fill="#000000" width="800px" height="800px" viewBox="0 0 100 100" version="1.1" xml:space="preserve" xmlns="http://www.w3.org/2000/svg" xmlns:xlink="http://www.w3.org/1999/xlink">
<g id="_x31_"/>
<g id="_x32_"/>
<g id="_x33_"/>
<g id="_x34_"/>
<g id="_x35_"/>
<g id="_x36_"/>
<g id="_x37_"/>
<g id="_x38_"/>
<g id="_x39_"/>
<g id="_x31_0"/>
<g id="_x31_1"/>
<g id="_x31_2"/>
<g id="_x31_3"/>
<g id="_x31_4"/>
<g id="_x31_5"/>
<g id="_x31_6"/>
<g id="_x31_7"/>
<g id="_x31_8"/>
<g id="_x31_9"/>
<g id="_x32_0"/>
<g id="_x32_1"/>
<g id="_x32_2"/>
<g id="_x32_3">
<path d="M75.9,50.4H42.5c-1.1,0-2-0.9-2-2v-6.9c0-1.1,0.9-2,2-2h33.4c3,0,5.4,2.4,5.4,5.4S78.9,50.4,75.9,50.4z M44.5,46.4h31.4   c0.8,0,1.4-0.6,1.4-1.4s-0.6-1.4-1.4-1.4H44.5V46.4z M33,21.5h-9c-3,0-5.4-2.4-5.4-5.4s2.4-5.4,5.4-5.4h9c1.1,0,2,0.9,2,2v6.7   C35,20.6,34.1,21.5,33,21.5z M24,14.8c-0.7,0-1.4,0.6-1.4,1.4s0.6,1.4,1.4,1.4h7v-2.7H24z M36.3,89.2c-9.6,0-17.4-7.8-17.4-17.4   c0-8.2,5.8-15.3,13.7-17c1.2-0.3,2.4-0.4,3.6-0.4c7.8,0,14.6,5.2,16.7,12.7c0.4,1.5,0.6,3.1,0.6,4.7C53.6,81.4,45.8,89.2,36.3,89.2   z M36.3,58.4c-1,0-1.9,0.1-2.8,0.3c-6.1,1.3-10.6,6.8-10.6,13.1c0,7.4,6,13.4,13.4,13.4c7.4,0,13.4-6,13.4-13.4   c0-1.2-0.2-2.4-0.5-3.6C47.5,62.4,42.2,58.4,36.3,58.4z M36.2,82.8c-6.1,0-11-4.9-11-11s4.9-11,11-11s11,4.9,11,11   S42.3,82.8,36.2,82.8z M36.2,64.8c-3.9,0-7,3.1-7,7s3.1,7,7,7s7-3.1,7-7S40.1,64.8,36.2,64.8z M75.6,76.9c-0.3,0-0.6-0.1-0.9-0.2   c-1.1-0.5-2.5-0.5-3.7,0c-0.6,0.3-1.3,0.2-1.9-0.1c-0.6-0.4-0.9-1-0.9-1.7v-5.3H51c-0.9,0-1.7-0.6-1.9-1.5   c-1.6-5.7-6.9-9.8-12.9-9.8c-1,0-1.9,0.1-2.8,0.3c-0.6,0.1-1.2,0-1.7-0.4c-0.5-0.4-0.7-1-0.7-1.6V12.8c0-1.1,0.9-2,2-2h9.4   c1.1,0,2,0.9,2,2v33.5h31.1c1.1,0,2,0.9,2,2v26.5c0,0.7-0.4,1.3-0.9,1.7C76.3,76.8,75.9,76.9,75.6,76.9z M72.9,72.3   c0.2,0,0.5,0,0.7,0v-22H42.5c-1.1,0-2-0.9-2-2V14.8H35v39.6c0.4,0,0.8,0,1.2,0c7.2,0,13.7,4.5,16.2,11.2h17.7c1.1,0,2,0.9,2,2v4.7   C72.4,72.3,72.6,72.3,72.9,72.3z M72.9,89.2c-4.6,0-8.4-3.8-8.4-8.4c0-3.3,1.9-6.3,4.9-7.7c2.2-1,4.9-1,7.1,0   c3,1.4,4.9,4.4,4.9,7.6C81.3,85.4,77.5,89.2,72.9,89.2z M72.9,76.3c-0.6,0-1.3,0.1-1.8,0.4c-1.6,0.7-2.6,2.3-2.6,4   c0,2.4,2,4.4,4.4,4.4c2.4,0,4.4-2,4.4-4.4c0-1.7-1-3.3-2.6-4C74.1,76.5,73.5,76.3,72.9,76.3z"/>
</g>
<g id="_x32_4"/>
<g id="_x32_5"/>
</svg>