<?xml version="1.0" encoding="iso-8859-1"?>
<!-- Uploaded to: SVG Repo, www.svgrepo.com, Generator: SVG Repo Mixer Tools -->
<svg height="800px" width="800px" version="1.1" id="Capa_1" xmlns="http://www.w3.org/2000/svg" xmlns:xlink="http://www.w3.org/1999/xlink" 
	 viewBox="0 0 57.164 57.164" xml:space="preserve">
<g>
	<path style="fill:#010002;" d="M45.777,4.096H27.513c-0.248-1.081-0.655-2.119-1.34-2.876C25.451,0.422,24.505,0,23.437,0
		c-1.387,0-2.554,0.53-3.375,1.533c-0.59,0.722-0.939,1.625-1.136,2.562h-5.149c-0.828,0-1.5,0.672-1.5,1.5s0.672,1.5,1.5,1.5h4.948
		c0.021,0.477,0.059,0.919,0.103,1.28c-4.944,0.048-8.939,4.066-8.939,9.023v25.474c0,4.984,4.041,9.025,9.025,9.025h1.329v2.758
		c0,0.334,0.247,0.709,0.553,0.843l1.829,0.797c0.306,0.133,0.804,0.146,1.117,0.03l2.104-0.783c0.312-0.114,0.564-0.48,0.564-0.812
		v-2.832h1.33c4.983,0,9.024-4.041,9.024-9.025V17.399c0-4.954-3.991-8.971-8.933-9.022c0.019-0.359,0.023-0.804,0.017-1.281h16.427
		v48.568c0,0.827,0.672,1.5,1.5,1.5s1.5-0.673,1.5-1.5V5.596C47.277,4.768,46.605,4.096,45.777,4.096z M22.384,3.434
		C22.559,3.219,22.822,3,23.437,3c0.219,0,0.358,0.062,0.51,0.232c0.187,0.206,0.338,0.508,0.461,0.864h-2.37
		C22.13,3.843,22.239,3.611,22.384,3.434z M24.843,7.096c0.01,0.441,0.006,0.876-0.015,1.276h-2.973
		c-0.055-0.367-0.102-0.809-0.127-1.276H24.843z M12.61,21.031c-0.553,0-1-0.447-1-1c0-5.527,4.498-10.024,10.026-10.024
		c0.553,0,1,0.447,1,1c0,0.553-0.447,1-1,1c-4.426,0-8.026,3.6-8.026,8.024C13.61,20.584,13.162,21.031,12.61,21.031z
		 M33.106,28.857V41.19c0,3.936-2.94,7.125-6.568,7.125h-6.42c-3.628,0-6.568-3.189-6.568-7.125V28.857H33.106z"/>
</g>
</svg>